<svg width="371" height="363" viewBox="0 0 371 363" fill="none" xmlns="http://www.w3.org/2000/svg">
<g filter="url(#filter0_d_226_19957)">
<path d="M322.951 142.972C322.951 174.631 312.61 203.769 295.464 227.304C285.939 239.912 274.508 251.118 261.445 259.804C240.217 274.092 214.907 282.498 187.691 282.498C112.85 282.498 52.4316 220.019 52.4316 143.252C52.4316 66.205 113.122 4.00684 187.691 4.00684C214.907 4.00684 240.217 12.412 261.445 26.4206C274.508 35.1059 285.939 46.3128 295.464 58.9205C312.882 82.1748 322.951 111.313 322.951 142.972Z" fill="#F0EAEA"/>
<path opacity="0.3" d="M295.462 58.6407V227.024C285.937 239.632 274.506 250.839 261.443 259.524H124.006V49.1148C124.278 42.951 126.727 37.3476 130.538 33.4252C134.892 28.9424 140.607 26.4209 147.139 26.4209H261.443C274.506 35.1062 286.209 46.0329 295.462 58.6407Z" fill="#CED7E2"/>
<path d="M270.698 56.4012H193.406V26.4229H294.919C295.191 26.4229 295.463 26.4229 295.463 26.4229C311.248 26.703 324.04 40.1513 324.04 56.6814H290.565" fill="#D0BFBF"/>
<path d="M297.641 26.4229C291.654 26.703 286.21 29.5047 282.128 33.4271C281.856 33.7073 281.312 34.2677 281.04 34.828C277.502 39.0306 275.052 44.634 275.052 50.5176V229.828C275.052 246.638 261.989 260.086 245.66 260.086H103.052V49.1168C103.324 42.953 105.773 37.3496 109.583 33.4271C113.938 28.9444 119.653 26.4229 126.185 26.4229H269.337H296.552C297.097 26.4229 297.369 26.4229 297.641 26.4229Z" fill="white"/>
<path d="M246.475 67.3271H204.292C202.659 67.3271 201.57 65.9262 201.57 64.5254C201.57 63.1245 202.931 61.7236 204.292 61.7236H246.748C248.381 61.7236 249.469 63.1245 249.469 64.5254C249.469 65.9262 248.108 67.3271 246.475 67.3271Z" fill="#CED7E2"/>
<path d="M184.425 67.3271H129.178C127.545 67.3271 126.456 65.9262 126.456 64.5254C126.456 63.1245 127.817 61.7236 129.178 61.7236H184.425C186.057 61.7236 187.146 63.1245 187.146 64.5254C187.146 65.9262 186.057 67.3271 184.425 67.3271Z" fill="#CED7E2"/>
<path d="M219.806 95.6239H164.831C163.198 95.6239 162.109 94.2231 162.109 92.8222C162.109 91.1412 163.47 90.0205 164.831 90.0205H219.806C221.439 90.0205 222.527 91.4214 222.527 92.8222C222.527 94.5033 221.439 95.6239 219.806 95.6239Z" fill="#CED7E2"/>
<path d="M147.14 95.6239H129.178C127.545 95.6239 126.456 94.2231 126.456 92.8222C126.456 91.1412 127.817 90.0205 129.178 90.0205H147.14C148.773 90.0205 149.861 91.4214 149.861 92.8222C149.861 94.5033 148.5 95.6239 147.14 95.6239Z" fill="#E3EAF2"/>
<path d="M246.475 124.202H212.728C211.095 124.202 210.007 122.801 210.007 121.4C210.007 119.719 211.368 118.599 212.728 118.599H246.475C248.108 118.599 249.197 119.999 249.197 121.4C249.469 122.801 248.108 124.202 246.475 124.202Z" fill="#E3EAF2"/>
<path d="M196.671 124.202H129.178C127.545 124.202 126.456 122.801 126.456 121.4C126.456 119.719 127.817 118.599 129.178 118.599H196.671C198.304 118.599 199.393 119.999 199.393 121.4C199.393 122.801 198.304 124.202 196.671 124.202Z" fill="#CED7E2"/>
<path d="M219.805 152.501H182.52C180.887 152.501 179.799 151.1 179.799 149.699C179.799 148.298 181.16 146.897 182.52 146.897H219.805C221.438 146.897 222.527 148.298 222.527 149.699C222.527 151.1 221.438 152.501 219.805 152.501Z" fill="#CED7E2"/>
<path d="M166.462 152.501H129.178C127.545 152.501 126.456 151.1 126.456 149.699C126.456 148.298 127.817 146.897 129.178 146.897H166.462C168.095 146.897 169.184 148.298 169.184 149.699C169.184 151.1 168.095 152.501 166.462 152.501Z" fill="#E3EAF2"/>
<path d="M246.476 181.079H220.622C218.989 181.079 217.9 179.678 217.9 178.277C217.9 176.596 219.261 175.476 220.622 175.476H246.476C248.109 175.476 249.198 176.876 249.198 178.277C249.47 179.678 248.109 181.079 246.476 181.079Z" fill="#CED7E2"/>
<path d="M203.748 181.079H160.204C158.571 181.079 157.482 179.678 157.482 178.277C157.482 176.596 158.843 175.476 160.204 175.476H203.748C205.381 175.476 206.47 176.876 206.47 178.277C206.742 179.678 205.381 181.079 203.748 181.079Z" fill="#E3EAF2"/>
<path d="M144.147 181.079H128.906C127.273 181.079 126.185 179.678 126.185 178.277C126.185 176.596 127.545 175.476 128.906 175.476H144.147C145.78 175.476 146.868 176.876 146.868 178.277C146.868 179.678 145.78 181.079 144.147 181.079Z" fill="#CED7E2"/>
<path d="M219.805 209.376H193.95C192.317 209.376 191.229 207.975 191.229 206.574C191.229 205.173 192.589 203.772 193.95 203.772H219.805C221.437 203.772 222.526 205.173 222.526 206.574C222.526 207.975 221.437 209.376 219.805 209.376Z" fill="#CED7E2"/>
<path d="M177.076 209.376H129.178C127.545 209.376 126.456 207.975 126.456 206.574C126.456 205.173 127.817 203.772 129.178 203.772H177.076C178.709 203.772 179.798 205.173 179.798 206.574C179.798 207.975 178.437 209.376 177.076 209.376Z" fill="#E3EAF2"/>
<path d="M183.064 235.991H220.621C220.621 242.435 223.071 248.599 227.425 252.802C231.507 257.004 237.223 259.806 243.754 259.806H74.2033C67.9438 259.806 61.9564 257.284 57.8741 252.802C53.7918 248.599 51.0703 242.715 51.0703 235.991H162.381C162.653 235.991 183.336 236.271 183.064 235.991Z" fill="#D0BFBF"/>
<path d="M76.6092 33.3827C80.1827 32.187 82.138 28.2354 80.9765 24.5566C79.815 20.8778 75.9766 18.8648 72.403 20.0606C68.8295 21.2563 66.8742 25.2079 68.0357 28.8867C69.1972 32.5655 73.0356 34.5784 76.6092 33.3827Z" fill="#F7E6E8"/>
<path d="M91.4612 10.5312C93.8912 9.71811 95.2208 7.03103 94.431 4.52944C93.6412 2.02784 91.0311 0.659034 88.6011 1.47212C86.1711 2.2852 84.8414 4.97228 85.6313 7.47387C86.4211 9.97547 89.0312 11.3443 91.4612 10.5312Z" fill="#F7E6E8"/>
<path d="M29.2965 161.464C31.8517 161.464 33.9231 159.332 33.9231 156.701C33.9231 154.071 31.8517 151.938 29.2965 151.938C26.7413 151.938 24.6699 154.071 24.6699 156.701C24.6699 159.332 26.7413 161.464 29.2965 161.464Z" fill="url(#paint0_linear_226_19957)"/>
<path d="M350.866 102.403C355.082 98.436 355.377 91.7017 351.524 87.3612C347.67 83.0206 341.129 82.7175 336.913 86.6841C332.696 90.6507 332.402 97.3849 336.255 101.725C340.108 106.066 346.649 106.369 350.866 102.403Z" fill="#F7E6E8"/>
<path d="M348.805 55.8395C351.21 55.8395 353.159 53.8325 353.159 51.3568C353.159 48.881 351.21 46.874 348.805 46.874C346.4 46.874 344.45 48.881 344.45 51.3568C344.45 53.8325 346.4 55.8395 348.805 55.8395Z" fill="url(#paint1_linear_226_19957)"/>
<g filter="url(#filter1_d_226_19957)">
<path d="M109.855 95.0648C110.127 104.31 102.779 112.155 93.798 112.435H89.4436L77.4689 112.716C59.5068 113.276 44.5384 98.4268 43.9941 79.9355C43.7219 61.4441 57.8739 46.0347 75.8359 45.4743C93.798 44.914 108.766 59.7631 109.311 78.2544L109.583 85.2587L109.855 95.0648Z" fill="url(#paint2_linear_226_19957)"/>
</g>
<path d="M109.856 95.0642C110.128 104.31 102.78 112.155 93.7989 112.435H89.4444L67.1279 89.4608L86.1786 71.81L92.4381 68.1677L109.312 85.5384L109.856 95.0642Z" fill="url(#paint3_linear_226_19957)"/>
<path d="M72.2983 93.3836C71.2097 93.3836 70.1211 93.1034 69.3046 92.2629L61.4122 84.1379C59.7793 82.4569 59.7793 79.9353 61.4122 78.2543C63.0451 76.5733 65.4945 76.5733 67.1274 78.2543L72.0261 83.2974L86.4502 68.4483C88.0831 66.7672 90.5325 66.7672 92.1654 68.4483C93.7983 70.1293 93.7983 72.6509 92.1654 74.3319L74.7477 92.2629C74.4755 92.8232 73.3869 93.3836 72.2983 93.3836Z" fill="url(#paint4_linear_226_19957)"/>
<path d="M19.5 264.567H297.368" stroke="#FAE7E7" stroke-width="5.65" stroke-miterlimit="10" stroke-linecap="round" stroke-linejoin="round"/>
<g filter="url(#filter2_d_226_19957)">
<path d="M344.488 236.297C343.672 239.939 342.583 243.302 341.222 246.664C340.95 247.505 340.678 248.064 340.134 248.905C335.507 258.151 328.159 265.715 319.178 270.198C318.089 270.759 317 271.319 316.184 271.599C307.475 275.241 297.678 276.642 287.88 274.401C262.026 268.797 245.424 242.741 250.867 216.124C256.31 189.508 281.621 172.419 307.475 178.022C316.728 179.983 324.893 184.746 331.697 191.47C342.855 203.237 347.754 220.047 344.488 236.297Z" fill="url(#paint5_linear_226_19957)"/>
</g>
<path d="M317.235 242.152L310.159 234.868C315.602 226.463 313.425 215.256 305.26 209.653C297.096 204.049 286.209 206.29 280.766 214.696C275.323 223.101 277.501 234.308 285.665 239.911C291.653 243.833 299.273 243.833 304.988 239.911L312.064 247.196C313.425 248.596 315.602 248.596 316.963 247.196C318.596 245.795 318.596 243.553 317.235 242.152ZM288.115 232.346C284.032 228.144 284.032 221.14 288.115 216.937C292.197 212.734 299.001 212.734 303.083 216.937C307.165 221.14 307.165 228.144 303.083 232.346C298.728 236.549 292.197 236.549 288.115 232.346Z" fill="url(#paint6_linear_226_19957)"/>
</g>
<defs>
<filter id="filter0_d_226_19957" x="0.675049" y="1.23755" width="369.556" height="361.26" filterUnits="userSpaceOnUse" color-interpolation-filters="sRGB">
<feFlood flood-opacity="0" result="BackgroundImageFix"/>
<feColorMatrix in="SourceAlpha" type="matrix" values="0 0 0 0 0 0 0 0 0 0 0 0 0 0 0 0 0 0 127 0" result="hardAlpha"/>
<feMorphology radius="48" operator="erode" in="SourceAlpha" result="effect1_dropShadow_226_19957"/>
<feOffset dy="64"/>
<feGaussianBlur stdDeviation="32"/>
<feColorMatrix type="matrix" values="0 0 0 0 0.0583333 0 0 0 0 0.0583333 0 0 0 0 0.0583333 0 0 0 0.1 0"/>
<feBlend mode="multiply" in2="BackgroundImageFix" result="effect1_dropShadow_226_19957"/>
<feBlend mode="normal" in="SourceGraphic" in2="effect1_dropShadow_226_19957" result="shape"/>
</filter>
<filter id="filter1_d_226_19957" x="21.3902" y="36.984" width="111.072" height="112.472" filterUnits="userSpaceOnUse" color-interpolation-filters="sRGB">
<feFlood flood-opacity="0" result="BackgroundImageFix"/>
<feColorMatrix in="SourceAlpha" type="matrix" values="0 0 0 0 0 0 0 0 0 0 0 0 0 0 0 0 0 0 127 0" result="hardAlpha"/>
<feOffset dy="14.125"/>
<feGaussianBlur stdDeviation="11.3"/>
<feColorMatrix type="matrix" values="0 0 0 0 0.968627 0 0 0 0 0.254902 0 0 0 0 0.564706 0 0 0 0.3 0"/>
<feBlend mode="normal" in2="BackgroundImageFix" result="effect1_dropShadow_226_19957"/>
<feBlend mode="normal" in="SourceGraphic" in2="effect1_dropShadow_226_19957" result="shape"/>
</filter>
<filter id="filter2_d_226_19957" x="227.234" y="168.483" width="140.85" height="143.722" filterUnits="userSpaceOnUse" color-interpolation-filters="sRGB">
<feFlood flood-opacity="0" result="BackgroundImageFix"/>
<feColorMatrix in="SourceAlpha" type="matrix" values="0 0 0 0 0 0 0 0 0 0 0 0 0 0 0 0 0 0 127 0" result="hardAlpha"/>
<feOffset dy="14.125"/>
<feGaussianBlur stdDeviation="11.3"/>
<feColorMatrix type="matrix" values="0 0 0 0 0.92549 0 0 0 0 0.823529 0 0 0 0 0.823529 0 0 0 0.22 0"/>
<feBlend mode="normal" in2="BackgroundImageFix" result="effect1_dropShadow_226_19957"/>
<feBlend mode="normal" in="SourceGraphic" in2="effect1_dropShadow_226_19957" result="shape"/>
</filter>
<linearGradient id="paint0_linear_226_19957" x1="24.6792" y1="156.717" x2="33.6749" y2="156.717" gradientUnits="userSpaceOnUse">
<stop stop-color="#FF7B7B"/>
<stop offset="1" stop-color="#FF5454"/>
</linearGradient>
<linearGradient id="paint1_linear_226_19957" x1="344.538" y1="51.4932" x2="352.987" y2="51.4932" gradientUnits="userSpaceOnUse">
<stop stop-color="#E4686A"/>
<stop offset="1" stop-color="#FF2D31"/>
</linearGradient>
<linearGradient id="paint2_linear_226_19957" x1="43.9944" y1="79.2065" x2="109.732" y2="79.2065" gradientUnits="userSpaceOnUse">
<stop stop-color="#FF6A6D"/>
<stop offset="1" stop-color="#FA373B"/>
</linearGradient>
<linearGradient id="paint3_linear_226_19957" x1="79.3005" y1="78.3357" x2="96.3989" y2="94.945" gradientUnits="userSpaceOnUse">
<stop stop-color="#FF4B4F"/>
<stop offset="1" stop-color="#F0383B" stop-opacity="0"/>
</linearGradient>
<linearGradient id="paint4_linear_226_19957" x1="85.8164" y1="85.0563" x2="71.0738" y2="70.7357" gradientUnits="userSpaceOnUse">
<stop offset="0.0113208" stop-color="#FFC9E3"/>
<stop offset="1" stop-color="white"/>
</linearGradient>
<linearGradient id="paint5_linear_226_19957" x1="249.703" y1="226.353" x2="345.439" y2="226.353" gradientUnits="userSpaceOnUse">
<stop stop-color="#FC8183"/>
<stop offset="1" stop-color="#DA3F41"/>
</linearGradient>
<linearGradient id="paint6_linear_226_19957" x1="313.043" y1="242.771" x2="288.804" y2="219.225" gradientUnits="userSpaceOnUse">
<stop offset="0.0113208" stop-color="#C2D1FF"/>
<stop offset="1" stop-color="white"/>
</linearGradient>
</defs>
</svg>
